<?xml version="1.0" encoding="utf-8"?>
<!-- Generator: Adobe Illustrator 27.5.0, SVG Export Plug-In . SVG Version: 6.00 Build 0)  -->
<svg version="1.1" xmlns="http://www.w3.org/2000/svg" xmlns:xlink="http://www.w3.org/1999/xlink" x="0px" y="0px"
	 viewBox="0 0 500 500" style="enable-background:new 0 0 500 500;" xml:space="preserve">
<g id="BACKGROUND">
	<rect id="XMLID_403_" style="fill:#FFFFFF;" width="500" height="500"/>
</g>
<g id="OBJECTS">
	<g id="XMLID_2_">
		<g id="XMLID_20_">
			<path id="XMLID_34_" style="fill:#C2C2C2;" d="M273.87,197.815c-4.888,0-9.812-0.478-14.716-1.444
				c-19.736-3.889-36.778-15.231-47.984-31.937c-11.206-16.706-15.236-36.776-11.346-56.513c8.028-40.743,47.708-67.361,88.45-59.33
				c40.743,8.028,67.358,47.707,59.331,88.45c-3.89,19.737-15.231,36.778-31.938,47.984
				C303.112,193.446,288.657,197.815,273.87,197.815z M273.692,56.077c-31.065,0-58.893,21.962-65.121,53.567
				c-3.429,17.4,0.124,35.094,10.003,49.823c9.879,14.728,24.903,24.728,42.303,28.156c17.401,3.428,35.096-0.125,49.823-10.004
				c14.728-9.879,24.728-24.903,28.156-42.304c7.079-35.919-16.387-70.901-52.307-77.979
				C282.237,56.487,277.932,56.077,273.692,56.077z"/>
		</g>
		<g id="XMLID_45_">
			<path id="XMLID_48_" style="fill:#A3A3A3;" d="M319.568,181.124c-12.555,8.422-27.01,12.79-41.797,12.79
				c-4.888,0-9.812-0.478-14.716-1.444c-19.736-3.889-36.778-15.231-47.984-31.937c-11.206-16.706-15.236-36.776-11.346-56.513
				c2.791-14.164,9.413-26.614,18.569-36.501c-11.17,10.422-19.298,24.302-22.47,40.402c-3.89,19.737,0.14,39.807,11.346,56.513
				c11.206,16.706,28.247,28.049,47.984,31.937c4.904,0.966,9.829,1.444,14.716,1.444c14.786,0,29.242-4.369,41.797-12.79
				c4.921-3.301,9.363-7.12,13.299-11.353C326.058,176.371,322.927,178.871,319.568,181.124z"/>
			<path id="XMLID_49_" style="fill:#A3A3A3;" d="M322.638,167.387c10.326-9.486,17.358-21.955,20.119-35.971
				c7.079-35.919-16.387-70.901-52.307-77.979c-4.314-0.85-8.618-1.26-12.859-1.26c-18.861,0-36.518,8.106-48.883,21.54
				c12.041-11.084,28.025-17.64,44.982-17.64c4.24,0,8.545,0.41,12.859,1.26c35.919,7.079,59.385,42.06,52.307,77.979
				C336.459,147.488,330.836,158.488,322.638,167.387z"/>
		</g>
		<g id="XMLID_44_">
			<path id="XMLID_47_" style="fill:#CFCFCF;" d="M288.275,48.59c-26.744-5.272-53.03,4.387-70.207,23.17
				c17.081-15.778,41.195-23.498,65.704-18.667c40.743,8.028,67.358,47.707,59.331,88.45c-2.717,13.787-9.081,26.251-18.36,36.337
				c11.736-10.764,19.726-24.923,22.863-40.84C355.633,96.298,329.018,56.618,288.275,48.59z"/>
		</g>
		<g id="XMLID_148_">
			<g id="XMLID_145_">
				<path id="XMLID_43_" style="fill:#C2C2C2;" d="M252.945,150.602c-10.412-4.037-22.541,1.203-31.555,12.389
					c2.006,2.299,3.869,4.727,6.121,6.742c5.406-7.129,12.187-11.553,18.188-11.553c1.391,0,2.742,0.238,4.022,0.734
					c9.413,3.65,12.161,20.16,5.999,36.053v-0.001c-6.162,15.894-19.322,26.235-28.735,22.585
					c-9.414-3.65-12.161-20.16-5.999-36.052c0.519-1.338,1.101-2.624,1.712-3.879c-2.431-2.024-4.465-4.397-6.558-6.781
					c-1.286,2.329-2.451,4.813-3.467,7.436c-8.182,21.102-3.311,42.005,11.088,47.589c2.363,0.916,4.813,1.354,7.296,1.354
					c12.652,0,26.136-11.389,32.976-29.028v-0.001C272.214,177.089,267.344,156.185,252.945,150.602z"/>
			</g>
			<g id="XMLID_33_">
				<path id="XMLID_37_" style="fill:#A3A3A3;" d="M258.785,194.967L258.785,194.967c6.162-15.892,3.414-32.402-5.999-36.052
					c-1.28-0.496-2.631-0.734-4.022-0.734c-0.514,0-1.035,0.044-1.559,0.108c0.861,0.112,1.704,0.312,2.516,0.626
					c9.413,3.65,12.161,20.16,5.999,36.053v-0.001c-5.01,12.921-14.644,22.172-23.131,23.219
					C241.704,219.352,253.16,209.476,258.785,194.967z"/>
				<path id="XMLID_38_" style="fill:#A3A3A3;" d="M226.826,225.865c-14.399-5.584-19.27-26.487-11.088-47.589
					c0.707-1.823,1.508-3.553,2.349-5.237c-0.651-0.727-1.298-1.46-1.946-2.199c-1.286,2.329-2.451,4.813-3.467,7.436
					c-8.182,21.102-3.311,42.005,11.088,47.589c2.363,0.916,4.813,1.354,7.296,1.354c0.527,0,1.055-0.027,1.584-0.066
					C230.666,227.012,228.717,226.598,226.826,225.865z"/>
			</g>
			<path id="XMLID_144_" style="fill:#454545;" d="M239.602,208.33l-16.862-6.538c-8.46-3.28-17.976,0.918-21.257,9.378l-2.7,6.963
				c-3.28,8.46,0.919,17.977,9.378,21.257l16.862,6.538c8.46,3.28,17.977-0.919,21.257-9.378l2.7-6.963
				C252.26,221.127,248.061,211.61,239.602,208.33z"/>
			<g id="XMLID_22_">
				<path id="XMLID_4_" style="fill:#525252;" d="M150.213,406.264L150.213,406.264c-39.526-14.786-59.748-58.667-45.31-98.322
					l28.371-77.92c7.838-21.527,31.724-32.534,53.181-24.507l66.81,24.993c21.192,7.928,32.034,31.455,24.293,52.716l-28.157,77.331
					C234.784,400.705,190.234,421.235,150.213,406.264z"/>
				<path id="XMLID_13_" style="fill:#6B6B6B;" d="M277.559,283.224c7.741-21.261-3.101-44.788-24.293-52.716l-66.81-24.993
					c-12.582-4.707-25.995-2.861-36.522,3.805c8.293-2.466,17.43-2.354,26.164,0.913l66.81,24.993
					c21.192,7.928,32.034,31.455,24.293,52.716l-28.157,77.331c-6.651,18.266-19.507,32.452-35.302,41.101
					c20.46-7.554,37.606-23.699,45.66-45.819L277.559,283.224z"/>
				<path id="XMLID_14_" style="fill:#454545;" d="M177.507,393.831L177.507,393.831c-39.526-14.786-59.748-58.667-45.31-98.322
					l28.371-77.92c2.06-5.657,5.235-10.578,9.176-14.628c-15.963,0.888-30.646,11.066-36.47,27.06l-28.371,77.92
					c-14.438,39.655,5.783,83.536,45.31,98.322l0,0c24.987,9.347,51.739,4.854,71.87-9.612
					C207.769,400.04,192.329,399.376,177.507,393.831z"/>
				<g id="XMLID_15_">
					<path id="XMLID_11_" style="fill:#595959;" d="M193.512,374.324l-55.685-20.831c-7.24-2.708-10.914-10.773-8.205-18.013
						l32.83-87.763c2.708-7.24,10.773-10.914,18.013-8.205l55.685,20.831c7.24,2.708,10.914,10.773,8.205,18.013l-32.83,87.763
						C208.817,373.359,200.752,377.033,193.512,374.324z"/>
					
						<rect id="XMLID_12_" x="143.348" y="303.66" transform="matrix(0.9366 0.3504 -0.3504 0.9366 119.3158 -46.1031)" style="fill:#454545;" width="87.447" height="6.075"/>
					<path id="XMLID_16_" style="fill:#454545;" d="M201.724,370.584l-55.685-20.831c-7.24-2.708-10.914-10.773-8.205-18.013
						l32.83-87.763c0.777-2.077,2.004-3.847,3.517-5.271c-5.138,0.514-9.797,3.848-11.729,9.011l-32.83,87.763
						c-2.708,7.24,0.965,15.305,8.205,18.013l55.685,20.831c5.164,1.932,10.737,0.605,14.497-2.935
						C205.942,371.596,203.801,371.361,201.724,370.584z"/>
					<path id="XMLID_17_" style="fill:#6B6B6B;" d="M236.15,260.343l-55.685-20.831c-4.883-1.827-10.136-0.741-13.873,2.375
						c2.318-0.374,4.76-0.179,7.116,0.703l55.685,20.831c7.24,2.708,10.914,10.773,8.205,18.013l-32.83,87.763
						c-0.882,2.357-2.337,4.327-4.14,5.83c4.804-0.774,9.07-4.025,10.897-8.908l32.83-87.763
						C247.064,271.116,243.391,263.052,236.15,260.343z"/>
				</g>
				<g id="XMLID_19_">
					<path id="XMLID_18_" style="fill:none;stroke:#BABABA;stroke-linecap:round;stroke-linejoin:round;stroke-miterlimit:10;" d="
						M200.053,294.105l-15.866-5.935c-1.283-0.48-1.934-1.909-1.454-3.191l5.114-13.671c0.48-1.283,1.909-1.934,3.191-1.454
						l15.866,5.935c1.283,0.48,1.934,1.909,1.454,3.191l-5.114,13.671C202.764,293.934,201.335,294.585,200.053,294.105z"/>
					<path id="XMLID_21_" style="fill:none;stroke:#BABABA;stroke-linecap:round;stroke-linejoin:round;stroke-miterlimit:10;" d="
						M192.447,270.382l0.83-2.218c1.348-3.603,5.361-5.431,8.964-4.083h0c3.603,1.348,5.431,5.361,4.083,8.964l-0.83,2.218"/>
					<path id="XMLID_24_" style="fill:none;stroke:#BABABA;stroke-linecap:round;stroke-linejoin:round;stroke-miterlimit:10;" d="
						M199.548,281.618c0.701-1.874-0.25-3.961-2.123-4.661c-1.874-0.701-3.96,0.25-4.661,2.123c-0.502,1.343-0.146,2.787,0.78,3.76
						l-1.351,3.612l2.949,1.103l1.351-3.612C197.829,283.816,199.046,282.961,199.548,281.618z"/>
				</g>
				<g id="XMLID_23_">
					<path id="XMLID_27_" style="fill:none;stroke:#BABABA;stroke-linecap:round;stroke-linejoin:round;stroke-miterlimit:10;" d="
						M179.835,348.152l-15.866-5.935c-1.283-0.48-1.934-1.909-1.454-3.191l5.114-13.671c0.48-1.283,1.909-1.934,3.191-1.454
						l15.866,5.935c1.283,0.48,1.934,1.909,1.454,3.191l-5.114,13.671C182.546,347.981,181.117,348.632,179.835,348.152z"/>
					<path id="XMLID_26_" style="fill:none;stroke:#BABABA;stroke-linecap:round;stroke-linejoin:round;stroke-miterlimit:10;" d="
						M172.229,324.428l2.392-6.393c1.348-3.603,5.361-5.431,8.964-4.083l0,0c3.603,1.348,5.431,5.361,4.083,8.964l-0.83,2.218"/>
					<path id="XMLID_25_" style="fill:none;stroke:#BABABA;stroke-linecap:round;stroke-linejoin:round;stroke-miterlimit:10;" d="
						M179.33,335.665c0.701-1.874-0.25-3.961-2.123-4.661c-1.874-0.701-3.961,0.25-4.661,2.123c-0.502,1.343-0.146,2.787,0.78,3.76
						l-1.351,3.612l2.949,1.103l1.351-3.612C177.611,337.863,178.828,337.007,179.33,335.665z"/>
				</g>
			</g>
		</g>
		<g id="XMLID_138_">
			<g id="XMLID_122_">
				<g id="XMLID_107_">
					<polygon id="XMLID_146_" style="fill:#A8A8A8;" points="338.772,311.934 329.46,313.799 330.545,323.137 339.153,323.637 
						339.433,332.22 331.732,335.595 339.712,340.802 340.119,353.286 330.985,360.613 340.602,368.111 340.983,379.814 
						330.508,393.934 323.774,403.026 311.509,403.425 306.555,398.088 300.046,391.052 291.853,382.196 288.804,288.567 
						296.649,286.749 302.881,285.297 337.643,277.26 					"/>
					<polygon id="XMLID_142_" style="fill:#919191;" points="311.52,290.577 315.192,403.305 311.509,403.425 306.555,398.088 
						303.062,290.852 					"/>
					<polygon id="XMLID_143_" style="fill:#C2C2C2;" points="302.49,273.281 306.555,398.088 300.046,391.052 296.217,273.485 					
						"/>
					<polygon id="XMLID_141_" style="fill:#C2C2C2;" points="338.772,313.048 332.622,313.256 332.593,322.593 339.153,322.523 
						339.433,332.22 334.822,336.245 339.712,340.802 340.119,353.286 332.454,360.624 340.602,368.111 340.983,379.814 
						330.508,393.934 326.883,282.64 337.806,282.284 					"/>
				</g>
				<g id="XMLID_121_">
					<path id="XMLID_29_" style="fill:#525252;" d="M353.359,300.35l-79.052,2.575c-10.98,0.358-20.17-8.253-20.528-19.233
						l-0.64-19.652c-1.055-32.403,24.357-59.527,56.76-60.582l1.47-0.048c32.403-1.055,59.527,24.357,60.582,56.76l0.64,19.652
						C372.949,290.802,364.339,299.993,353.359,300.35z"/>
					<path id="XMLID_5_" style="fill:#6B6B6B;" d="M341.27,237.992c-0.192-5.885-5.164-10.544-11.049-10.352l-33.633,1.095
						c-3.315,0.108-6.24,1.732-8.129,4.182c1.728-1.356,3.876-2.204,6.227-2.281l33.633-1.095
						c5.885-0.192,10.858,4.467,11.049,10.352l0.034,1.045c0.084,2.571-0.758,4.967-2.224,6.867
						c2.599-2.038,4.241-5.234,4.125-8.769L341.27,237.992z"/>
					<path id="XMLID_124_" style="fill:#454545;" d="M371.433,282.604l-85.153,2.773c-9.295,0.303-17.099-7.74-17.432-17.964
						l-0.668-20.494c-0.364-11.18,2.166-21.692,6.772-30.772c-13.77,11.629-22.391,30.154-21.719,50.757l0.515,15.818
						c0.375,11.516,9.166,20.574,19.634,20.233l80.902-2.635c9.332-0.304,16.829-7.98,18.085-17.799
						C372.058,282.55,371.75,282.593,371.433,282.604z"/>
					<path id="XMLID_9_" style="fill:#6B6B6B;" d="M371.952,260.171c-1.055-32.403-28.179-57.816-60.582-56.76l-1.47,0.048
						c-16.402,0.534-31.004,7.754-41.297,18.95c9.998-9.24,23.227-15.076,37.901-15.554l1.47-0.048
						c32.403-1.055,59.527,24.357,60.582,56.76l0.64,19.652c0.157,4.83-1.423,9.311-4.175,12.849
						c4.782-3.78,7.785-9.685,7.571-16.245L371.952,260.171z"/>
					<path id="XMLID_42_" style="fill:#FFFFFF;" d="M329.05,251.988l-33.633,1.095c-5.886,0.192-10.858-4.467-11.049-10.352
						l-0.034-1.045c-0.192-5.885,4.467-10.858,10.352-11.049l33.633-1.096c5.885-0.192,10.858,4.467,11.049,10.352l0.034,1.045
						C339.594,246.824,334.936,251.797,329.05,251.988z"/>
					<path id="XMLID_3_" style="fill:#FFFFFF;" d="M332.067,251.988l-33.633,1.095c-5.885,0.192-10.858-4.467-11.049-10.352
						l-0.034-1.045c-0.192-5.885,4.467-10.858,10.352-11.049l33.632-1.096c5.886-0.192,10.858,4.467,11.05,10.352l0.034,1.045
						C342.611,246.824,337.952,251.797,332.067,251.988z"/>
					<path id="XMLID_10_" style="fill:#454545;" d="M293.008,230.637c-5.886,0.192-10.544,5.164-10.352,11.049l0.034,1.045
						c0.192,5.885,5.164,10.544,11.049,10.352l6.102-0.199c-4.788-0.933-8.503-5.084-8.668-10.154l-0.034-1.045
						c-0.192-5.885,4.467-10.858,10.352-11.049H293.008z"/>
				</g>
			</g>
			<g id="XMLID_139_">
				<path id="XMLID_46_" style="fill:#C2C2C2;" d="M277.252,197.482c-2.591,1.013-6.254-0.053-8.91-0.541
					c-0.169,2.212-0.229,4.483-0.153,6.806c0.189,5.684,1.126,11.156,2.775,16.227c2.318-2.251,4.837-4.313,7.511-6.163
					c-0.791-3.299-1.259-6.765-1.371-10.353C277.038,201.424,277.093,199.426,277.252,197.482z"/>
				<path id="XMLID_41_" style="fill:#C2C2C2;" d="M320.702,202.042c-0.724-22.367-12.805-39.496-27.549-39.028
					c-11.349,0.369-20.46,11.089-23.71,26.227c0.08,0.007,0.155,0,0.238,0.013c3.025,0.461,6.105-0.127,9.13-0.666
					c2.682-9.645,8.207-16.456,14.633-16.669h0.301c9.272,0,17.508,13.808,18.043,30.414c0.011,0.357,0.022,0.713,0.022,1.07
					c0.123,8.247-1.649,15.97-5.004,21.832c-1.794,3.143-5.661,8.447-11.345,8.637c-2.463,0.078-4.391,2.14-4.313,4.603
					c0.078,2.407,2.062,4.313,4.458,4.313c0.045,0,0.089-0.011,0.145-0.011c7.422-0.234,14.109-4.904,18.801-13.117
					c4.046-7.088,6.219-16.193,6.185-25.811C320.735,203.246,320.724,202.655,320.702,202.042z"/>
				<g id="XMLID_28_">
					<path id="XMLID_50_" style="fill:#A3A3A3;" d="M277.23,197.891c0.01-0.135,0.011-0.274,0.022-0.409
						c-0.511,0.2-1.072,0.301-1.651,0.359C276.154,197.889,276.701,197.917,277.23,197.891z"/>
					<path id="XMLID_55_" style="fill:#A3A3A3;" d="M270.258,203.747c-0.071-2.181-0.013-4.311,0.133-6.394
						c-0.721-0.146-1.415-0.296-2.049-0.412c-0.169,2.212-0.229,4.483-0.153,6.806c0.189,5.684,1.126,11.156,2.775,16.227
						c0.526-0.511,1.066-1.009,1.612-1.501C271.213,213.829,270.429,208.876,270.258,203.747z"/>
				</g>
				<g id="XMLID_52_">
					<path id="XMLID_53_" style="fill:#A3A3A3;" d="M271.749,189.254c-0.082-0.012-0.157-0.005-0.238-0.013
						c3.214-14.971,12.165-25.604,23.341-26.194c-0.563-0.034-1.129-0.051-1.7-0.033c-11.349,0.369-20.46,11.089-23.71,26.227
						c0.08,0.007,0.155,0,0.238,0.013c1.135,0.173,2.279,0.198,3.424,0.133C272.651,189.361,272.2,189.322,271.749,189.254z"/>
					<path id="XMLID_54_" style="fill:#A3A3A3;" d="M293.216,238.474c-0.078-2.463,1.85-4.525,4.313-4.603
						c5.684-0.19,9.551-5.494,11.345-8.637c3.355-5.862,5.127-13.585,5.004-21.832c0-0.357-0.011-0.713-0.022-1.07
						c-0.535-16.605-8.771-30.414-18.043-30.414h-0.301c-0.235,0.008-0.467,0.043-0.7,0.068c8.828,1.01,16.46,14.381,16.974,30.345
						c0.011,0.357,0.022,0.713,0.022,1.07c0.123,8.247-1.649,15.97-5.004,21.832c-1.794,3.143-5.661,8.447-11.345,8.637
						c-2.463,0.078-4.391,2.14-4.313,4.603c0.078,2.407,2.062,4.313,4.458,4.313c0.045,0,0.089-0.011,0.145-0.011
						c0.357-0.011,0.712-0.042,1.066-0.074C294.82,242.311,293.284,240.586,293.216,238.474z"/>
				</g>
				<g id="XMLID_31_">
					<path id="XMLID_32_" style="fill:#CFCFCF;" d="M276.711,188.953c0.701-0.116,1.401-0.242,2.098-0.366
						c1.261-4.533,3.155-8.426,5.469-11.316C281.14,179.71,278.504,183.824,276.711,188.953z"/>
					<path id="XMLID_39_" style="fill:#CFCFCF;" d="M301.664,231.439c-1.733,1.356-3.805,2.353-6.205,2.433
						c-1.945,0.062-3.538,1.367-4.092,3.123c0.379-0.119,0.772-0.208,1.19-0.221C296.492,236.642,299.555,234.059,301.664,231.439z"
						/>
					<path id="XMLID_40_" style="fill:#CFCFCF;" d="M320.702,202.042c-0.724-22.367-12.805-39.496-27.549-39.028
						c-5.824,0.19-11.05,3.118-15.205,7.957c3.592-3.08,7.763-4.907,12.303-5.055c14.744-0.468,26.825,16.661,27.549,39.028
						c0.022,0.613,0.033,1.204,0.033,1.805c0.033,9.618-2.14,18.723-6.185,25.811c-1.115,1.951-2.345,3.695-3.668,5.235
						c2.458-2.101,4.678-4.825,6.57-8.137c4.046-7.088,6.219-16.193,6.185-25.811C320.735,203.246,320.724,202.655,320.702,202.042z
						"/>
				</g>
			</g>
			<path id="XMLID_1_" style="fill:#595959;" d="M342.256,286.832l-52.601,1.632c-4.277,0.133-7.853-3.227-7.985-7.505
				l-0.374-12.051c-0.133-4.277,3.227-7.853,7.505-7.985l52.601-1.632c4.277-0.133,7.853,3.227,7.985,7.505l0.374,12.051
				C349.894,283.125,346.534,286.7,342.256,286.832z"/>
			<path id="XMLID_7_" style="fill:#6B6B6B;" d="M349.387,266.796c-0.133-4.277-3.708-7.637-7.985-7.505l-52.601,1.632
				c-2.57,0.08-4.802,1.407-6.151,3.378c1.178-0.805,2.588-1.299,4.12-1.347l52.601-1.632c4.277-0.133,7.853,3.227,7.985,7.505
				l0.374,12.051c0.053,1.707-0.457,3.298-1.354,4.607c2.112-1.442,3.47-3.893,3.385-6.638L349.387,266.796z"/>
			<path id="XMLID_6_" style="fill:#454545;" d="M344.819,284.27l-52.601,1.632c-4.277,0.133-7.852-3.227-7.985-7.505l-0.374-12.051
				c-0.049-1.567,0.375-3.037,1.137-4.281c-2.292,1.407-3.789,3.963-3.7,6.843l0.374,12.051c0.133,4.277,3.708,7.637,7.985,7.505
				l52.601-1.632c2.711-0.084,5.049-1.553,6.368-3.705C347.512,283.81,346.216,284.226,344.819,284.27z"/>
		</g>
	</g>
</g>
<g id="DESIGNED_BY_FREEPIK">
	<g id="XMLID_1808_">
		<g id="XMLID_1870_">
			<g id="XMLID_592_">
				<g id="XMLID_628_">
					<path id="XMLID_649_" style="fill:#6E6E6E;" d="M176.616,470.889c-0.246,0-0.434,0.085-0.567,0.255
						c-0.133,0.17-0.199,0.421-0.199,0.754v2.392c-0.305-0.331-0.617-0.579-0.938-0.739c-0.321-0.159-0.715-0.24-1.181-0.24
						c-0.807,0-1.458,0.283-1.953,0.848c-0.495,0.566-0.742,1.356-0.742,2.369c0,0.478,0.063,0.923,0.187,1.335
						c0.125,0.412,0.307,0.77,0.549,1.074c0.241,0.305,0.527,0.539,0.857,0.704c0.331,0.164,0.69,0.246,1.078,0.246
						c0.293,0,0.563-0.04,0.81-0.122c0.247-0.081,0.477-0.2,0.689-0.356c0.212-0.156,0.426-0.359,0.644-0.608v0.161
						c0,0.297,0.072,0.525,0.216,0.686c0.145,0.16,0.328,0.24,0.549,0.24c0.226,0,0.41-0.078,0.552-0.231
						c0.143-0.154,0.214-0.386,0.214-0.694v-7.147c0-0.305-0.066-0.535-0.199-0.691C177.05,470.967,176.861,470.889,176.616,470.889
						z M175.55,477.731c-0.14,0.306-0.328,0.534-0.564,0.682c-0.236,0.149-0.496,0.223-0.781,0.223c-0.281,0-0.54-0.079-0.778-0.236
						c-0.237-0.156-0.424-0.388-0.561-0.697c-0.137-0.309-0.205-0.682-0.205-1.122c0-0.416,0.064-0.781,0.193-1.096
						c0.128-0.315,0.309-0.556,0.543-0.724c0.234-0.168,0.499-0.252,0.796-0.252c0.285,0,0.547,0.082,0.786,0.245
						c0.24,0.165,0.429,0.402,0.57,0.712c0.141,0.311,0.21,0.682,0.21,1.114C175.76,477.04,175.691,477.424,175.55,477.731z"/>
					<path id="XMLID_646_" style="fill:#6E6E6E;" d="M183.982,476.811c0.233-0.121,0.35-0.385,0.35-0.793
						c0-0.438-0.114-0.87-0.338-1.294c-0.225-0.423-0.565-0.768-1.019-1.035c-0.453-0.268-0.996-0.4-1.629-0.4
						c-0.487,0-0.93,0.077-1.33,0.234c-0.4,0.157-0.736,0.381-1.009,0.674c-0.273,0.293-0.48,0.644-0.623,1.054
						c-0.143,0.409-0.213,0.853-0.213,1.332c0,1.017,0.289,1.823,0.866,2.416s1.387,0.891,2.428,0.891
						c0.455,0,0.858-0.059,1.208-0.178c0.351-0.119,0.641-0.268,0.873-0.448c0.231-0.18,0.404-0.368,0.52-0.564
						c0.114-0.197,0.172-0.367,0.172-0.513c0-0.167-0.052-0.294-0.155-0.386c-0.103-0.091-0.237-0.137-0.403-0.137
						c-0.155,0-0.274,0.036-0.357,0.107c-0.202,0.19-0.366,0.341-0.493,0.452c-0.127,0.111-0.265,0.216-0.415,0.312
						c-0.151,0.098-0.306,0.168-0.466,0.214c-0.161,0.045-0.337,0.067-0.531,0.067c-0.289,0-0.553-0.07-0.793-0.213
						c-0.239-0.142-0.432-0.354-0.576-0.635c-0.145-0.281-0.219-0.605-0.223-0.973h3.17
						C183.42,476.992,183.749,476.931,183.982,476.811z M179.826,476.072c0.056-0.546,0.213-0.959,0.472-1.238
						c0.259-0.279,0.591-0.418,0.994-0.418c0.424,0,0.764,0.137,1.024,0.413c0.259,0.275,0.409,0.69,0.448,1.244H179.826z"/>
					<path id="XMLID_645_" style="fill:#6E6E6E;" d="M189.41,476.374c-0.319-0.17-0.729-0.316-1.232-0.44
						c-0.424-0.103-0.756-0.19-0.997-0.261c-0.242-0.071-0.434-0.161-0.576-0.27c-0.142-0.109-0.213-0.248-0.213-0.419
						c0-0.186,0.097-0.341,0.291-0.465c0.194-0.126,0.437-0.187,0.73-0.187c0.285,0,0.511,0.047,0.677,0.142
						c0.167,0.095,0.31,0.222,0.433,0.38c0.151,0.19,0.284,0.332,0.401,0.427c0.117,0.096,0.258,0.144,0.424,0.144
						c0.23,0,0.407-0.061,0.532-0.178c0.124-0.119,0.186-0.272,0.186-0.457c0-0.171-0.058-0.345-0.175-0.523
						c-0.117-0.178-0.287-0.34-0.51-0.486c-0.223-0.146-0.503-0.264-0.837-0.35c-0.334-0.088-0.711-0.131-1.131-0.131
						c-0.534,0-0.99,0.086-1.367,0.259c-0.378,0.172-0.664,0.403-0.859,0.691c-0.194,0.289-0.291,0.596-0.291,0.92
						c0,0.364,0.105,0.671,0.315,0.92c0.21,0.249,0.489,0.45,0.84,0.602c0.35,0.152,0.804,0.298,1.362,0.436
						c0.495,0.119,0.85,0.244,1.066,0.375c0.216,0.131,0.323,0.338,0.323,0.623c0,0.186-0.104,0.351-0.311,0.496
						c-0.208,0.144-0.474,0.217-0.798,0.217c-0.4,0-0.716-0.071-0.947-0.214c-0.232-0.143-0.431-0.358-0.597-0.648
						c-0.082-0.15-0.17-0.267-0.261-0.35c-0.091-0.083-0.221-0.125-0.391-0.125c-0.194,0-0.355,0.064-0.481,0.19
						c-0.127,0.126-0.19,0.278-0.19,0.457c0,0.27,0.099,0.537,0.297,0.805c0.198,0.266,0.505,0.49,0.92,0.667
						c0.416,0.178,0.914,0.267,1.496,0.267c0.609,0,1.127-0.082,1.552-0.246c0.426-0.164,0.747-0.406,0.965-0.725
						c0.218-0.319,0.327-0.702,0.327-1.149c0-0.297-0.082-0.56-0.246-0.792C189.969,476.745,189.728,476.543,189.41,476.374z"/>
					<path id="XMLID_644_" style="fill:#6E6E6E;" d="M192.018,473.299c-0.238,0-0.431,0.081-0.579,0.243
						c-0.149,0.162-0.222,0.404-0.222,0.724v4.636c0,0.317,0.074,0.56,0.222,0.73c0.148,0.17,0.341,0.255,0.579,0.255
						c0.238,0,0.433-0.083,0.588-0.249c0.154-0.166,0.232-0.412,0.232-0.737v-4.683c0-0.289-0.077-0.515-0.232-0.677
						C192.451,473.38,192.256,473.299,192.018,473.299z"/>
					<path id="XMLID_643_" style="fill:#6E6E6E;" d="M192.036,470.96c-0.217,0-0.409,0.074-0.573,0.223
						c-0.164,0.149-0.246,0.337-0.246,0.567c0,0.254,0.08,0.45,0.24,0.588c0.16,0.139,0.353,0.208,0.579,0.208
						c0.218,0,0.406-0.071,0.564-0.211c0.158-0.14,0.238-0.335,0.238-0.585c0-0.258-0.081-0.453-0.244-0.588
						C192.432,471.027,192.246,470.96,192.036,470.96z"/>
					<path id="XMLID_640_" style="fill:#6E6E6E;" d="M199.159,473.299c-0.218,0-0.396,0.078-0.535,0.231
						c-0.139,0.155-0.208,0.372-0.208,0.653v0.22c-0.289-0.376-0.602-0.652-0.938-0.829c-0.337-0.175-0.735-0.264-1.193-0.264
						c-0.384,0-0.736,0.068-1.057,0.204c-0.32,0.137-0.603,0.339-0.849,0.608c-0.245,0.269-0.434,0.599-0.567,0.992
						c-0.132,0.391-0.198,0.831-0.198,1.318c0,0.653,0.108,1.228,0.326,1.727c0.217,0.499,0.529,0.886,0.934,1.163
						c0.406,0.277,0.88,0.416,1.422,0.416c0.451,0,0.84-0.091,1.166-0.273c0.327-0.182,0.614-0.447,0.864-0.796
						c-0.008,0.531-0.02,0.915-0.035,1.155s-0.07,0.465-0.163,0.673c-0.093,0.21-0.255,0.374-0.487,0.49
						c-0.232,0.117-0.557,0.175-0.977,0.175c-0.205,0-0.388-0.02-0.546-0.056c-0.158-0.038-0.294-0.095-0.407-0.172
						c-0.112-0.077-0.216-0.17-0.309-0.28c-0.093-0.108-0.183-0.217-0.27-0.324c-0.178-0.209-0.386-0.314-0.624-0.314
						c-0.189,0-0.352,0.062-0.486,0.187c-0.135,0.124-0.202,0.286-0.202,0.483c0,0.261,0.119,0.516,0.357,0.763
						c0.238,0.247,0.576,0.449,1.015,0.605c0.439,0.156,0.938,0.234,1.496,0.234c0.61,0,1.119-0.061,1.529-0.184
						c0.409-0.122,0.741-0.311,0.994-0.564c0.254-0.253,0.438-0.574,0.552-0.961c0.115-0.388,0.173-0.851,0.173-1.39v-4.707
						c0-0.384-0.052-0.678-0.155-0.882C199.679,473.401,199.471,473.299,199.159,473.299z M198.132,477.665
						c-0.151,0.29-0.345,0.508-0.585,0.653c-0.239,0.144-0.493,0.217-0.762,0.217c-0.455,0-0.826-0.168-1.113-0.505
						c-0.287-0.336-0.43-0.833-0.43-1.49c0-0.649,0.139-1.15,0.418-1.501c0.279-0.352,0.649-0.529,1.113-0.529
						c0.475,0,0.858,0.184,1.149,0.552c0.291,0.367,0.436,0.883,0.436,1.543C198.358,477.021,198.282,477.374,198.132,477.665z"/>
					<path id="XMLID_639_" style="fill:#6E6E6E;" d="M206.513,474.367c-0.165-0.339-0.417-0.603-0.753-0.789
						c-0.337-0.186-0.718-0.28-1.146-0.28c-0.439,0-0.828,0.089-1.166,0.264c-0.339,0.176-0.65,0.452-0.935,0.828v-0.196
						c0-0.194-0.035-0.358-0.104-0.493c-0.069-0.134-0.162-0.234-0.276-0.302c-0.115-0.068-0.244-0.101-0.387-0.101
						c-0.233,0-0.417,0.076-0.552,0.228c-0.135,0.152-0.202,0.383-0.202,0.692v4.683c0,0.317,0.075,0.56,0.226,0.73
						c0.151,0.17,0.342,0.255,0.576,0.255c0.241,0,0.438-0.082,0.59-0.246c0.152-0.164,0.228-0.411,0.228-0.74v-2.03
						c0-0.661,0.04-1.112,0.119-1.353c0.111-0.3,0.285-0.537,0.522-0.71c0.237-0.172,0.501-0.258,0.789-0.258
						c0.444,0,0.739,0.142,0.888,0.425c0.148,0.283,0.223,0.692,0.223,1.226v2.701c0,0.317,0.075,0.56,0.226,0.73
						c0.15,0.17,0.346,0.255,0.588,0.255c0.237,0,0.43-0.083,0.578-0.249c0.149-0.166,0.223-0.412,0.223-0.737v-3.015
						c0-0.357-0.016-0.649-0.048-0.879C206.689,474.78,206.62,474.565,206.513,474.367z"/>
					<path id="XMLID_636_" style="fill:#6E6E6E;" d="M213.357,476.811c0.234-0.121,0.35-0.385,0.35-0.793
						c0-0.438-0.113-0.87-0.338-1.294c-0.226-0.423-0.565-0.768-1.019-1.035c-0.453-0.268-0.996-0.4-1.629-0.4
						c-0.487,0-0.93,0.077-1.33,0.234c-0.399,0.157-0.736,0.381-1.009,0.674c-0.273,0.293-0.481,0.644-0.624,1.054
						c-0.142,0.409-0.214,0.853-0.214,1.332c0,1.017,0.289,1.823,0.866,2.416c0.578,0.593,1.388,0.891,2.428,0.891
						c0.455,0,0.858-0.059,1.208-0.178c0.35-0.119,0.641-0.268,0.872-0.448c0.232-0.18,0.405-0.368,0.52-0.564
						c0.115-0.197,0.172-0.367,0.172-0.513c0-0.167-0.051-0.294-0.154-0.386c-0.103-0.091-0.238-0.137-0.404-0.137
						c-0.154,0-0.273,0.036-0.356,0.107c-0.202,0.19-0.366,0.341-0.492,0.452c-0.128,0.111-0.266,0.216-0.416,0.312
						c-0.151,0.098-0.306,0.168-0.466,0.214c-0.161,0.045-0.338,0.067-0.532,0.067c-0.289,0-0.553-0.07-0.792-0.213
						c-0.24-0.142-0.432-0.354-0.576-0.635c-0.145-0.281-0.218-0.605-0.223-0.973h3.169
						C212.795,476.992,213.124,476.931,213.357,476.811z M209.202,476.072c0.055-0.546,0.212-0.959,0.471-1.238
						c0.259-0.279,0.591-0.418,0.995-0.418c0.423,0,0.764,0.137,1.024,0.413c0.259,0.275,0.409,0.69,0.448,1.244H209.202z"/>
					<path id="XMLID_633_" style="fill:#6E6E6E;" d="M219.744,470.889c-0.245,0-0.435,0.085-0.567,0.255
						c-0.133,0.17-0.199,0.421-0.199,0.754v2.392c-0.304-0.331-0.617-0.579-0.938-0.739c-0.32-0.159-0.714-0.24-1.181-0.24
						c-0.807,0-1.458,0.283-1.953,0.848c-0.495,0.566-0.742,1.356-0.742,2.369c0,0.478,0.062,0.923,0.187,1.335
						c0.125,0.412,0.307,0.77,0.549,1.074c0.242,0.305,0.527,0.539,0.858,0.704c0.33,0.164,0.689,0.246,1.078,0.246
						c0.293,0,0.563-0.04,0.81-0.122c0.247-0.081,0.477-0.2,0.688-0.356c0.212-0.156,0.426-0.359,0.644-0.608v0.161
						c0,0.297,0.072,0.525,0.217,0.686c0.145,0.16,0.328,0.24,0.549,0.24c0.226,0,0.41-0.078,0.552-0.231
						c0.143-0.154,0.214-0.386,0.214-0.694v-7.147c0-0.305-0.066-0.535-0.199-0.691
						C220.178,470.967,219.989,470.889,219.744,470.889z M218.678,477.731c-0.14,0.306-0.328,0.534-0.564,0.682
						c-0.235,0.149-0.495,0.223-0.781,0.223c-0.281,0-0.54-0.079-0.777-0.236c-0.238-0.156-0.425-0.388-0.562-0.697
						c-0.137-0.309-0.204-0.682-0.204-1.122c0-0.416,0.064-0.781,0.193-1.096c0.129-0.315,0.31-0.556,0.543-0.724
						c0.233-0.168,0.499-0.252,0.795-0.252c0.285,0,0.547,0.082,0.787,0.245c0.24,0.165,0.43,0.402,0.57,0.712
						c0.141,0.311,0.211,0.682,0.211,1.114C218.889,477.04,218.818,477.424,218.678,477.731z"/>
					<path id="XMLID_630_" style="fill:#6E6E6E;" d="M229.125,473.693c-0.406-0.255-0.878-0.382-1.416-0.382
						c-0.467,0-0.859,0.084-1.176,0.252c-0.317,0.168-0.627,0.411-0.932,0.727v-2.475c0-0.297-0.067-0.525-0.202-0.686
						c-0.135-0.16-0.326-0.24-0.576-0.24c-0.237,0-0.423,0.084-0.555,0.252c-0.132,0.168-0.198,0.416-0.198,0.745v7.077
						c0,0.305,0.068,0.535,0.205,0.692c0.136,0.156,0.32,0.234,0.549,0.234c0.226,0,0.412-0.078,0.558-0.234
						c0.147-0.157,0.22-0.388,0.22-0.692v-0.161c0.178,0.206,0.322,0.361,0.431,0.463c0.109,0.103,0.241,0.203,0.395,0.3
						c0.154,0.098,0.341,0.175,0.561,0.234c0.219,0.06,0.454,0.089,0.703,0.089c0.407,0,0.78-0.082,1.119-0.246
						c0.338-0.164,0.626-0.397,0.864-0.698c0.237-0.3,0.418-0.656,0.543-1.065c0.124-0.41,0.187-0.859,0.187-1.35
						c0-0.665-0.112-1.241-0.336-1.725C229.844,474.319,229.53,473.949,229.125,473.693z M228.335,478.105
						c-0.294,0.355-0.646,0.532-1.053,0.532c-0.479,0-0.866-0.174-1.16-0.521c-0.295-0.346-0.442-0.841-0.442-1.486
						c0-0.439,0.069-0.819,0.208-1.137c0.139-0.319,0.329-0.562,0.57-0.73c0.241-0.168,0.517-0.252,0.825-0.252
						c0.301,0,0.564,0.084,0.79,0.252c0.225,0.168,0.399,0.406,0.522,0.715c0.123,0.308,0.184,0.677,0.184,1.104
						C228.777,477.243,228.629,477.75,228.335,478.105z"/>
					<path id="XMLID_629_" style="fill:#6E6E6E;" d="M236.07,473.397c-0.113-0.066-0.23-0.098-0.353-0.098
						c-0.17,0-0.302,0.03-0.395,0.09c-0.093,0.059-0.181,0.173-0.264,0.344c-0.083,0.17-0.176,0.407-0.279,0.706l-1.3,3.71
						l-1.371-3.989c-0.091-0.277-0.195-0.489-0.314-0.638c-0.119-0.148-0.296-0.223-0.529-0.223c-0.135,0-0.264,0.035-0.389,0.107
						c-0.125,0.071-0.222,0.166-0.294,0.285c-0.071,0.118-0.107,0.247-0.107,0.385c0,0.131,0.062,0.341,0.184,0.629l1.995,5.022
						l-0.148,0.363c-0.111,0.265-0.209,0.466-0.294,0.602c-0.085,0.137-0.181,0.233-0.288,0.288
						c-0.107,0.056-0.254,0.084-0.44,0.084c-0.075,0-0.164-0.012-0.267-0.036c-0.083-0.024-0.169-0.037-0.256-0.037
						c-0.221,0-0.389,0.051-0.501,0.152c-0.113,0.101-0.169,0.245-0.169,0.43c0,0.273,0.118,0.461,0.356,0.564
						c0.237,0.103,0.593,0.154,1.068,0.154c0.487,0,0.874-0.074,1.161-0.223c0.287-0.148,0.517-0.361,0.691-0.638
						c0.174-0.277,0.352-0.659,0.535-1.145l2.113-5.533c0.051-0.142,0.094-0.283,0.13-0.421c0.036-0.139,0.061-0.246,0.078-0.321
						c0-0.123-0.031-0.239-0.092-0.35C236.269,473.55,236.182,473.462,236.07,473.397z"/>
				</g>
				<g id="XMLID_607_">
					<path id="XMLID_627_" style="fill:#6E6E6E;" d="M258.474,470.885c-0.534,0-0.954,0.068-1.26,0.204
						c-0.307,0.137-0.527,0.354-0.654,0.653c-0.129,0.3-0.192,0.702-0.192,1.211v0.487h-0.386c-0.543,0-0.815,0.192-0.815,0.582
						c0,0.174,0.066,0.317,0.197,0.424c0.132,0.111,0.316,0.164,0.559,0.164h0.446v4.294c0,0.319,0.075,0.563,0.228,0.73
						c0.154,0.17,0.344,0.254,0.574,0.254c0.243,0,0.438-0.084,0.589-0.254c0.156-0.167,0.231-0.411,0.231-0.73v-4.294h0.396
						c0.29,0,0.517-0.035,0.68-0.107c0.166-0.071,0.245-0.241,0.245-0.503c0-0.374-0.306-0.56-0.926-0.56h-0.396v-0.386
						c0-0.322,0.043-0.568,0.122-0.74c0.087-0.172,0.274-0.259,0.566-0.259c0.107,0,0.241,0.014,0.389,0.035
						c0.156,0.026,0.267,0.037,0.33,0.037c0.134,0,0.252-0.054,0.348-0.16c0.101-0.107,0.15-0.236,0.15-0.384
						C259.895,471.114,259.424,470.885,258.474,470.885z"/>
					<path id="XMLID_626_" style="fill:#6E6E6E;" d="M263.635,473.551c-0.32-0.171-0.648-0.255-0.991-0.255
						c-0.342,0-0.611,0.084-0.819,0.255c-0.203,0.171-0.4,0.421-0.593,0.755c-0.014-0.334-0.08-0.584-0.198-0.755
						c-0.119-0.171-0.313-0.255-0.583-0.255c-0.526,0-0.788,0.364-0.788,1.093v4.514c0,0.323,0.077,0.569,0.225,0.734
						c0.15,0.169,0.341,0.25,0.579,0.25c0.237,0,0.431-0.081,0.586-0.247c0.151-0.163,0.234-0.41,0.234-0.737v-1.355
						c0-0.487,0.014-0.9,0.045-1.238c0.034-0.337,0.09-0.631,0.17-0.878c0.083-0.243,0.201-0.426,0.353-0.554
						c0.15-0.122,0.345-0.186,0.582-0.186c0.172,0,0.374,0.037,0.602,0.108c0.226,0.073,0.371,0.112,0.433,0.112
						c0.158,0,0.304-0.064,0.441-0.195c0.135-0.126,0.204-0.292,0.204-0.488C264.117,473.949,263.957,473.722,263.635,473.551z"/>
					<path id="XMLID_623_" style="fill:#6E6E6E;" d="M269.723,476.809c0.233-0.122,0.351-0.386,0.351-0.791
						c0-0.441-0.113-0.871-0.339-1.296c-0.222-0.424-0.566-0.77-1.018-1.034c-0.453-0.27-0.997-0.403-1.629-0.403
						c-0.488,0-0.931,0.078-1.33,0.234c-0.402,0.156-0.736,0.38-1.008,0.674c-0.276,0.295-0.484,0.643-0.624,1.055
						c-0.144,0.41-0.217,0.855-0.217,1.334c0,1.016,0.292,1.823,0.87,2.418c0.577,0.593,1.385,0.889,2.429,0.889
						c0.454,0,0.858-0.06,1.207-0.179c0.349-0.117,0.64-0.268,0.874-0.446c0.233-0.181,0.405-0.368,0.522-0.566
						c0.112-0.195,0.167-0.365,0.167-0.512c0-0.167-0.048-0.294-0.152-0.386c-0.105-0.092-0.238-0.138-0.406-0.138
						c-0.153,0-0.271,0.038-0.355,0.109c-0.202,0.189-0.367,0.34-0.494,0.449c-0.128,0.113-0.264,0.217-0.415,0.313
						c-0.15,0.097-0.307,0.17-0.466,0.213c-0.161,0.049-0.337,0.069-0.531,0.069c-0.29,0-0.552-0.07-0.793-0.212
						c-0.24-0.144-0.431-0.357-0.578-0.635c-0.144-0.28-0.216-0.607-0.221-0.974h3.171
						C269.162,476.99,269.489,476.93,269.723,476.809z M265.567,476.069c0.054-0.546,0.213-0.957,0.472-1.236
						c0.259-0.281,0.591-0.418,0.995-0.418c0.426,0,0.764,0.136,1.025,0.413c0.26,0.273,0.407,0.688,0.446,1.241H265.567z"/>
					<path id="XMLID_620_" style="fill:#6E6E6E;" d="M275.462,473.688c-0.46-0.27-1.003-0.403-1.633-0.403
						c-0.487,0-0.932,0.078-1.331,0.234c-0.401,0.156-0.737,0.38-1.009,0.674c-0.273,0.295-0.481,0.643-0.622,1.055
						c-0.145,0.41-0.217,0.855-0.217,1.334c0,1.016,0.291,1.823,0.868,2.418c0.58,0.593,1.387,0.889,2.429,0.889
						c0.454,0,0.861-0.06,1.209-0.179c0.347-0.117,0.641-0.268,0.872-0.446c0.234-0.181,0.408-0.368,0.519-0.566
						c0.117-0.195,0.171-0.365,0.171-0.512c0-0.167-0.047-0.294-0.15-0.386c-0.104-0.092-0.239-0.138-0.406-0.138
						c-0.151,0-0.271,0.038-0.355,0.109c-0.203,0.189-0.368,0.34-0.493,0.449c-0.128,0.113-0.264,0.217-0.415,0.313
						c-0.153,0.097-0.307,0.17-0.469,0.213c-0.158,0.049-0.336,0.069-0.528,0.069c-0.291,0-0.555-0.07-0.795-0.212
						c-0.239-0.144-0.431-0.357-0.576-0.635c-0.143-0.28-0.218-0.607-0.222-0.974h3.171c0.422,0,0.75-0.06,0.984-0.181
						c0.231-0.122,0.351-0.386,0.351-0.791c0-0.441-0.116-0.871-0.341-1.296C276.253,474.298,275.911,473.952,275.462,473.688z
						 M272.309,476.069c0.052-0.546,0.211-0.957,0.469-1.236c0.261-0.281,0.592-0.418,0.995-0.418c0.426,0,0.764,0.136,1.027,0.413
						c0.257,0.273,0.407,0.688,0.447,1.241H272.309z"/>
					<path id="XMLID_617_" style="fill:#6E6E6E;" d="M282.476,473.693c-0.42-0.256-0.883-0.386-1.38-0.386
						c-0.415,0-0.79,0.089-1.114,0.267c-0.331,0.176-0.649,0.452-0.953,0.828v-0.194c0-0.297-0.071-0.519-0.218-0.678
						c-0.143-0.156-0.329-0.234-0.56-0.234c-0.233,0-0.419,0.078-0.553,0.228c-0.134,0.155-0.2,0.383-0.2,0.692v6.996
						c0,0.355,0.051,0.62,0.146,0.807c0.102,0.183,0.301,0.275,0.607,0.275c0.518,0,0.778-0.359,0.778-1.069v-2.433
						c0.287,0.358,0.587,0.633,0.901,0.816c0.313,0.187,0.704,0.279,1.166,0.279c0.385,0,0.741-0.076,1.08-0.227
						c0.334-0.153,0.622-0.372,0.868-0.654c0.245-0.283,0.441-0.632,0.58-1.05c0.14-0.419,0.21-0.878,0.21-1.376
						c0-0.677-0.123-1.262-0.366-1.758C283.225,474.328,282.895,473.952,282.476,473.693z M282,477.697
						c-0.137,0.313-0.32,0.546-0.552,0.704c-0.229,0.154-0.48,0.233-0.748,0.233c-0.454,0-0.828-0.178-1.133-0.537
						c-0.307-0.358-0.46-0.862-0.46-1.504c0-0.686,0.154-1.204,0.462-1.558c0.306-0.35,0.684-0.527,1.13-0.527
						c0.281,0,0.541,0.084,0.77,0.248c0.229,0.163,0.411,0.397,0.541,0.705c0.13,0.306,0.197,0.674,0.197,1.102
						C282.207,477.005,282.138,477.383,282,477.697z"/>
					<path id="XMLID_616_" style="fill:#6E6E6E;" d="M285.45,473.296c-0.238,0-0.428,0.079-0.58,0.245
						c-0.146,0.162-0.222,0.403-0.222,0.721v4.642c0,0.313,0.076,0.556,0.222,0.729c0.152,0.17,0.342,0.254,0.58,0.254
						c0.238,0,0.432-0.082,0.588-0.25c0.154-0.165,0.231-0.41,0.231-0.732v-4.689c0-0.286-0.077-0.513-0.231-0.675
						C285.882,473.375,285.688,473.296,285.45,473.296z"/>
					<path id="XMLID_615_" style="fill:#6E6E6E;" d="M285.467,470.956c-0.217,0-0.408,0.076-0.571,0.222
						c-0.166,0.15-0.248,0.339-0.248,0.569c0,0.253,0.08,0.446,0.242,0.585c0.159,0.138,0.35,0.209,0.577,0.209
						c0.22,0,0.408-0.071,0.566-0.21c0.157-0.14,0.236-0.335,0.236-0.585c0-0.258-0.082-0.455-0.244-0.591
						C285.865,471.022,285.679,470.956,285.467,470.956z"/>
					<path id="XMLID_614_" style="fill:#6E6E6E;" d="M292.809,478.326l-1.662-2.614l0.861-0.789
						c0.438-0.396,0.659-0.714,0.659-0.951c0-0.192-0.068-0.355-0.2-0.483c-0.139-0.128-0.306-0.193-0.51-0.193
						c-0.169,0-0.313,0.043-0.431,0.13c-0.121,0.086-0.29,0.251-0.517,0.486l-1.823,1.914v-3.933c0-0.33-0.074-0.582-0.221-0.751
						c-0.148-0.172-0.344-0.257-0.593-0.257c-0.255,0-0.456,0.092-0.596,0.283c-0.136,0.189-0.207,0.463-0.207,0.821v6.915
						c0,0.323,0.073,0.569,0.215,0.734c0.141,0.169,0.339,0.25,0.588,0.25c0.213,0,0.406-0.084,0.567-0.254
						c0.165-0.167,0.248-0.406,0.248-0.718v-1.291l0.88-0.83l1.428,2.354c0.181,0.278,0.33,0.472,0.436,0.58
						c0.106,0.109,0.261,0.16,0.458,0.16c0.226,0,0.413-0.073,0.554-0.221c0.141-0.151,0.213-0.352,0.213-0.61
						c0-0.089-0.029-0.189-0.081-0.289C293.021,478.666,292.93,478.522,292.809,478.326z"/>
					<path id="XMLID_613_" style="fill:#6E6E6E;" d="M295.001,478.1c-0.25,0-0.458,0.087-0.63,0.262
						c-0.17,0.173-0.256,0.381-0.256,0.622c0,0.287,0.09,0.51,0.268,0.665c0.179,0.159,0.389,0.238,0.634,0.238
						c0.237,0,0.444-0.079,0.624-0.241c0.174-0.158,0.264-0.38,0.264-0.662c0-0.243-0.089-0.454-0.264-0.626
						C295.461,478.187,295.25,478.1,295.001,478.1z"/>
					<path id="XMLID_612_" style="fill:#6E6E6E;" d="M302.389,477.173c-0.167,0-0.308,0.054-0.422,0.156
						c-0.113,0.104-0.219,0.245-0.318,0.427c-0.178,0.31-0.382,0.538-0.617,0.689c-0.231,0.15-0.51,0.225-0.835,0.225
						c-0.239,0-0.462-0.045-0.665-0.141c-0.201-0.093-0.372-0.23-0.516-0.409c-0.144-0.18-0.252-0.398-0.325-0.653
						c-0.075-0.255-0.114-0.537-0.114-0.842c0-0.646,0.147-1.161,0.44-1.534c0.293-0.375,0.682-0.561,1.158-0.561
						c0.333,0,0.607,0.074,0.821,0.226c0.219,0.148,0.424,0.375,0.623,0.674c0.109,0.158,0.209,0.269,0.299,0.339
						c0.09,0.068,0.201,0.104,0.338,0.104c0.202,0,0.377-0.068,0.524-0.203c0.143-0.135,0.214-0.3,0.214-0.492
						c0-0.192-0.063-0.397-0.192-0.617c-0.127-0.218-0.314-0.424-0.556-0.62c-0.245-0.192-0.54-0.352-0.89-0.474
						c-0.353-0.123-0.737-0.184-1.158-0.184c-0.674,0-1.259,0.138-1.746,0.419c-0.486,0.279-0.859,0.674-1.113,1.184
						c-0.259,0.511-0.387,1.098-0.387,1.765c0,0.981,0.281,1.765,0.841,2.35c0.562,0.582,1.345,0.876,2.349,0.876
						c0.469,0,0.894-0.065,1.269-0.192c0.377-0.126,0.688-0.295,0.934-0.502c0.248-0.208,0.434-0.425,0.554-0.656
						c0.121-0.229,0.182-0.446,0.182-0.646c0-0.169-0.066-0.331-0.198-0.481C302.751,477.25,302.586,477.173,302.389,477.173z"/>
					<path id="XMLID_609_" style="fill:#6E6E6E;" d="M309.201,474.209c-0.288-0.29-0.629-0.517-1.027-0.674
						c-0.4-0.16-0.847-0.239-1.337-0.239c-0.482,0-0.924,0.078-1.326,0.234c-0.398,0.158-0.737,0.38-1.019,0.669
						c-0.281,0.288-0.498,0.637-0.649,1.046c-0.146,0.408-0.224,0.858-0.224,1.349c0,0.485,0.076,0.93,0.219,1.332
						c0.152,0.402,0.369,0.75,0.657,1.048c0.284,0.292,0.627,0.521,1.016,0.676c0.392,0.159,0.835,0.239,1.326,0.239
						c0.493,0,0.937-0.08,1.337-0.234c0.394-0.157,0.735-0.382,1.02-0.675c0.286-0.291,0.502-0.641,0.656-1.049
						c0.146-0.409,0.222-0.856,0.222-1.337c0-0.489-0.075-0.932-0.221-1.339C309.703,474.852,309.487,474.505,309.201,474.209z
						 M308.009,478.125c-0.289,0.372-0.681,0.557-1.171,0.557c-0.324,0-0.604-0.086-0.845-0.253c-0.24-0.168-0.424-0.41-0.554-0.729
						c-0.129-0.316-0.193-0.684-0.193-1.108c0-0.428,0.066-0.803,0.197-1.124c0.13-0.322,0.314-0.564,0.556-0.728
						c0.242-0.164,0.522-0.246,0.839-0.246c0.49,0,0.882,0.182,1.171,0.555c0.29,0.367,0.436,0.881,0.436,1.543
						C308.445,477.243,308.299,477.756,308.009,478.125z"/>
					<path id="XMLID_608_" style="fill:#6E6E6E;" d="M319.126,473.569c-0.32-0.173-0.705-0.262-1.146-0.262
						c-0.381,0-0.726,0.081-1.039,0.241c-0.313,0.161-0.607,0.408-0.881,0.738c-0.192-0.326-0.431-0.572-0.725-0.735
						c-0.292-0.162-0.641-0.244-1.049-0.244c-0.394,0-0.748,0.079-1.07,0.241c-0.319,0.156-0.62,0.404-0.903,0.738v-0.153
						c0-0.261-0.074-0.466-0.221-0.615c-0.15-0.145-0.335-0.222-0.557-0.222c-0.227,0-0.413,0.078-0.556,0.239
						c-0.14,0.157-0.209,0.389-0.209,0.695v4.637c0,0.336,0.078,0.591,0.235,0.765c0.156,0.171,0.357,0.258,0.604,0.258
						c0.248,0,0.447-0.087,0.603-0.258c0.15-0.173,0.226-0.428,0.226-0.765v-2.189c0-0.684,0.087-1.207,0.254-1.567
						c0.168-0.369,0.516-0.55,1.048-0.55c0.264,0,0.459,0.073,0.582,0.22c0.121,0.142,0.198,0.331,0.226,0.552
						c0.027,0.226,0.04,0.544,0.04,0.953v2.582c0,0.342,0.078,0.594,0.233,0.767c0.148,0.17,0.349,0.255,0.595,0.255
						c0.254,0,0.455-0.085,0.611-0.255c0.156-0.173,0.231-0.425,0.231-0.767v-2.154c0-0.694,0.062-1.178,0.178-1.452
						c0.109-0.21,0.259-0.384,0.45-0.508c0.192-0.126,0.395-0.192,0.609-0.192c0.264,0,0.463,0.073,0.596,0.215
						c0.129,0.142,0.21,0.319,0.239,0.529c0.029,0.209,0.043,0.487,0.043,0.836v2.726c0,0.336,0.079,0.591,0.235,0.765
						c0.157,0.171,0.356,0.258,0.603,0.258c0.253,0,0.458-0.085,0.612-0.255c0.153-0.173,0.23-0.425,0.23-0.767v-3.164
						c0-0.629-0.068-1.09-0.206-1.385C319.684,473.994,319.444,473.743,319.126,473.569z"/>
				</g>
				<g id="XMLID_593_">
					<path id="XMLID_606_" style="fill:#6E6E6E;" d="M240.814,476.201c-0.001-0.003-0.001-0.006-0.001-0.011
						C240.813,476.194,240.813,476.197,240.814,476.201z"/>
					<path id="XMLID_605_" style="fill:#6E6E6E;" d="M240.896,476.719c0.001,0,0.001,0,0.001,0
						c-0.031-0.148-0.055-0.294-0.074-0.439C240.842,476.426,240.867,476.573,240.896,476.719z"/>
					<path id="XMLID_604_" style="fill:#6E6E6E;" d="M241.432,478.223c-0.004-0.006-0.007-0.013-0.011-0.021
						C241.426,478.209,241.429,478.216,241.432,478.223z"/>
					<path id="XMLID_603_" style="fill:#6E6E6E;" d="M241.381,478.122c-0.014-0.027-0.028-0.056-0.041-0.084
						C241.354,478.068,241.367,478.095,241.381,478.122z"/>
					<path id="XMLID_602_" style="fill:#6E6E6E;" d="M241.047,477.298c0.079,0.25,0.175,0.493,0.286,0.724
						c-0.113-0.236-0.206-0.479-0.284-0.724H241.047z"/>
					<path id="XMLID_601_" style="fill:#6E6E6E;" d="M246.278,469.436l-0.076-0.259c0.299-0.063,0.524-0.329,0.524-0.646
						c0-0.364-0.296-0.659-0.661-0.659s-0.66,0.295-0.66,0.659c0,0.317,0.224,0.583,0.523,0.646l0.084,0.289
						c-1.021,0.14-1.834,0.539-1.834,0.539l0.144,0.441c0.618-0.206,1.154-0.331,1.64-0.383c0.476-0.051,0.834-0.073,1.126-0.073
						c0.313,0,0.544,0.025,0.809,0.07l0.075-0.477C247.972,469.583,247.24,469.358,246.278,469.436z"/>
					<path id="XMLID_600_" style="fill:#6E6E6E;" d="M240.994,471.944c-0.017,0.024-0.497,0.465-0.876,1.28
						c-0.016-0.026-0.035-0.051-0.056-0.074c-0.114-0.124-0.272-0.187-0.474-0.184c-0.003,0-0.006,0-0.009,0
						c-0.125,0-0.21-0.042-0.267-0.092c0.056-0.071,0.089-0.16,0.089-0.258c0-0.23-0.187-0.418-0.418-0.418
						c-0.23,0-0.418,0.188-0.418,0.418c0,0.231,0.187,0.418,0.418,0.418c0.036,0,0.071-0.006,0.104-0.013
						c0.103,0.114,0.266,0.214,0.505,0.209c0.123-0.001,0.213,0.031,0.274,0.097c0.069,0.076,0.093,0.185,0.1,0.267
						c-0.001,0.001-0.001,0.003-0.002,0.003c-0.272,0.743-0.194,1.669-0.194,1.669l0.661,0.026c0.014-0.337,0.062-0.926,0.232-1.394
						c0.329-0.906,0.741-1.472,0.758-1.496l0.004-0.005c0.024-0.031,0.047-0.06,0.071-0.089l-0.196-0.141L240.994,471.944z"/>
					<path id="XMLID_599_" style="fill:#6E6E6E;" d="M252.837,470.543c-0.23,0-0.418,0.187-0.418,0.418
						c0,0.036,0.005,0.07,0.015,0.103c-0.115,0.104-0.214,0.267-0.21,0.507c0.002,0.123-0.03,0.212-0.096,0.273
						c-0.053,0.047-0.12,0.072-0.185,0.088c-0.492-0.689-1.097-1.109-1.097-1.109l-0.474,0.508c0.358,0.326,0.725,0.734,1.08,1.244
						c0.246,0.352,0.499,0.806,0.71,1.259l0.64-0.304c0,0-0.292-0.722-0.704-1.37c0.071-0.025,0.143-0.064,0.207-0.12
						c0.125-0.113,0.187-0.273,0.183-0.474c-0.001-0.13,0.042-0.218,0.093-0.276c0.071,0.054,0.161,0.089,0.258,0.089
						c0.232,0,0.419-0.187,0.419-0.418C253.256,470.729,253.069,470.543,252.837,470.543z"/>
					<path id="XMLID_598_" style="fill:#6E6E6E;" d="M251.176,476.294c-0.881,0.429-2.33,0.996-4.238,1.262
						c-0.749,0.104-1.475,0.142-2.143,0.142c-0.869,0-1.637-0.065-2.227-0.139c-0.673-0.085-1.198-0.188-1.52-0.261
						c0.077,0.245,0.171,0.488,0.284,0.724c0.002,0.006,0.005,0.013,0.008,0.017c0.013,0.028,0.027,0.056,0.041,0.084
						c0.013,0.027,0.027,0.054,0.04,0.079c0.004,0.007,0.007,0.015,0.011,0.021c0.189,0.357,0.417,0.684,0.675,0.968
						c0.9,0.984,1.817,1.14,1.826,1.141l0.014,0.002l0.013,0.005c0.008,0.003,0.821,0.266,2.057,0.266
						c1.216,0,2.409-0.245,3.546-0.729c0.842-0.431,1.639-1.085,2.034-1.669c0.305-0.452,0.525-0.933,0.656-1.434
						c0.07-0.266,0.124-0.692,0.092-1.141C252.099,475.798,251.707,476.036,251.176,476.294z"/>
					<path id="XMLID_594_" style="fill:#6E6E6E;" d="M247.865,470.411c-0.265-0.043-0.477-0.068-0.777-0.068
						c-0.28,0-0.626,0.023-1.09,0.071c-0.464,0.048-0.982,0.17-1.583,0.372c-0.842,0.282-1.605,0.724-2.204,1.28l-0.02,0.019
						c-0.089,0.082-0.274,0.254-0.488,0.525c-0.026,0.037-0.408,0.578-0.71,1.408c-0.226,0.622-0.216,1.527-0.216,1.538v0.002
						c0,0.212,0.012,0.423,0.035,0.632c0,0.005,0,0.008,0.001,0.011c0.002,0.027,0.007,0.052,0.009,0.079
						c0.019,0.145,0.043,0.291,0.074,0.439c0.438,0.111,3.049,0.72,5.968,0.314c1.829-0.255,3.218-0.795,4.062-1.204
						c0.701-0.34,1.151-0.648,1.325-0.774c-0.173-0.643-0.651-1.65-1.089-2.279C249.91,470.984,248.559,470.525,247.865,470.411z
						 M244.22,475.67c-0.972,0-1.76-0.787-1.76-1.759c0-0.972,0.788-1.761,1.76-1.761c0.973,0,1.761,0.789,1.761,1.761
						C245.981,474.883,245.193,475.67,244.22,475.67z M249.372,474.373c-0.601,0-1.089-0.489-1.089-1.09
						c0-0.601,0.488-1.089,1.089-1.089c0.601,0,1.089,0.488,1.089,1.089C250.461,473.884,249.972,474.373,249.372,474.373z"/>
				</g>
			</g>
		</g>
	</g>
</g>
</svg>
